<mxfile host="app.diagrams.net" modified="2023-10-16T03:10:10.790Z" agent="Mozilla/5.0 (X11; Linux x86_64) AppleWebKit/537.36 (KHTML, like Gecko) Chrome/118.0.0.0 Safari/537.36" etag="0bzBlQneZGNOaNfZwCt0" version="22.0.4" type="github">
  <diagram name="第 1 页" id="L62Syw4sW2Bvmkcxk8Q5">
    <mxGraphModel dx="2004" dy="1131" grid="1" gridSize="10" guides="1" tooltips="1" connect="1" arrows="1" fold="1" page="1" pageScale="1" pageWidth="827" pageHeight="1169" math="1" shadow="0">
      <root>
        <mxCell id="0" />
        <mxCell id="1" parent="0" />
        <mxCell id="Ur8V6VJK2JBpg7Gshukn-2" value="" style="endArrow=classic;html=1;rounded=0;entryX=0.5;entryY=0;entryDx=0;entryDy=0;" parent="1" target="Ur8V6VJK2JBpg7Gshukn-3" edge="1">
          <mxGeometry width="50" height="50" relative="1" as="geometry">
            <mxPoint x="380" y="210" as="sourcePoint" />
            <mxPoint x="380" y="250" as="targetPoint" />
            <Array as="points">
              <mxPoint x="380" y="240" />
              <mxPoint x="330" y="240" />
            </Array>
          </mxGeometry>
        </mxCell>
        <mxCell id="Ur8V6VJK2JBpg7Gshukn-22" style="edgeStyle=orthogonalEdgeStyle;rounded=0;orthogonalLoop=1;jettySize=auto;html=1;exitX=0.5;exitY=1;exitDx=0;exitDy=0;" parent="1" source="Ur8V6VJK2JBpg7Gshukn-3" edge="1">
          <mxGeometry relative="1" as="geometry">
            <mxPoint x="330" y="380" as="targetPoint" />
          </mxGeometry>
        </mxCell>
        <mxCell id="U6GN84W_XhxQD2ambfGV-3" style="edgeStyle=orthogonalEdgeStyle;rounded=0;orthogonalLoop=1;jettySize=auto;html=1;exitX=0.5;exitY=1;exitDx=0;exitDy=0;entryX=0.5;entryY=0;entryDx=0;entryDy=0;" parent="1" source="Ur8V6VJK2JBpg7Gshukn-3" target="Ur8V6VJK2JBpg7Gshukn-16" edge="1">
          <mxGeometry relative="1" as="geometry">
            <Array as="points">
              <mxPoint x="330" y="330" />
              <mxPoint x="290" y="330" />
            </Array>
          </mxGeometry>
        </mxCell>
        <mxCell id="U6GN84W_XhxQD2ambfGV-4" value="X&lt;sup&gt;low&lt;/sup&gt;" style="edgeLabel;html=1;align=center;verticalAlign=middle;resizable=0;points=[];" parent="U6GN84W_XhxQD2ambfGV-3" vertex="1" connectable="0">
          <mxGeometry x="-0.7111" y="3" relative="1" as="geometry">
            <mxPoint as="offset" />
          </mxGeometry>
        </mxCell>
        <mxCell id="Ur8V6VJK2JBpg7Gshukn-3" value="1x1Conv" style="rounded=0;whiteSpace=wrap;html=1;fillColor=#dae8fc;strokeColor=#6c8ebf;" parent="1" vertex="1">
          <mxGeometry x="300" y="280" width="60" height="20" as="geometry" />
        </mxCell>
        <mxCell id="Ur8V6VJK2JBpg7Gshukn-24" style="edgeStyle=orthogonalEdgeStyle;rounded=0;orthogonalLoop=1;jettySize=auto;html=1;exitX=0.5;exitY=1;exitDx=0;exitDy=0;entryX=0.5;entryY=0;entryDx=0;entryDy=0;" parent="1" source="Ur8V6VJK2JBpg7Gshukn-7" target="Ur8V6VJK2JBpg7Gshukn-17" edge="1">
          <mxGeometry relative="1" as="geometry">
            <Array as="points">
              <mxPoint x="430" y="330" />
              <mxPoint x="388" y="330" />
            </Array>
          </mxGeometry>
        </mxCell>
        <mxCell id="Ur8V6VJK2JBpg7Gshukn-25" style="edgeStyle=orthogonalEdgeStyle;rounded=0;orthogonalLoop=1;jettySize=auto;html=1;exitX=0.5;exitY=1;exitDx=0;exitDy=0;entryX=0.5;entryY=0;entryDx=0;entryDy=0;" parent="1" source="Ur8V6VJK2JBpg7Gshukn-7" target="Ur8V6VJK2JBpg7Gshukn-18" edge="1">
          <mxGeometry relative="1" as="geometry">
            <Array as="points">
              <mxPoint x="430" y="330" />
              <mxPoint x="473" y="330" />
            </Array>
          </mxGeometry>
        </mxCell>
        <mxCell id="U6GN84W_XhxQD2ambfGV-8" value="X&lt;sup&gt;up&lt;/sup&gt;" style="edgeLabel;html=1;align=center;verticalAlign=middle;resizable=0;points=[];" parent="Ur8V6VJK2JBpg7Gshukn-25" vertex="1" connectable="0">
          <mxGeometry x="-0.6973" y="3" relative="1" as="geometry">
            <mxPoint as="offset" />
          </mxGeometry>
        </mxCell>
        <mxCell id="Ur8V6VJK2JBpg7Gshukn-7" value="1x1Conv" style="rounded=0;whiteSpace=wrap;html=1;fillColor=#dae8fc;strokeColor=#6c8ebf;" parent="1" vertex="1">
          <mxGeometry x="400" y="280" width="60" height="20" as="geometry" />
        </mxCell>
        <mxCell id="Ur8V6VJK2JBpg7Gshukn-8" value="" style="endArrow=classic;html=1;rounded=0;entryX=0.5;entryY=0;entryDx=0;entryDy=0;" parent="1" target="Ur8V6VJK2JBpg7Gshukn-7" edge="1">
          <mxGeometry width="50" height="50" relative="1" as="geometry">
            <mxPoint x="380" y="210" as="sourcePoint" />
            <mxPoint x="440" y="550" as="targetPoint" />
            <Array as="points">
              <mxPoint x="380" y="220" />
              <mxPoint x="380" y="240" />
              <mxPoint x="430" y="240" />
            </Array>
          </mxGeometry>
        </mxCell>
        <mxCell id="VcxKodku8BXHEVl9nZtI-45" value="Input" style="edgeLabel;html=1;align=center;verticalAlign=middle;resizable=0;points=[];" vertex="1" connectable="0" parent="Ur8V6VJK2JBpg7Gshukn-8">
          <mxGeometry x="-0.8667" y="2" relative="1" as="geometry">
            <mxPoint as="offset" />
          </mxGeometry>
        </mxCell>
        <mxCell id="Ur8V6VJK2JBpg7Gshukn-10" value="aC" style="text;html=1;align=center;verticalAlign=middle;resizable=0;points=[];autosize=1;strokeColor=none;fillColor=none;" parent="1" vertex="1">
          <mxGeometry x="420" y="238" width="40" height="30" as="geometry" />
        </mxCell>
        <mxCell id="Ur8V6VJK2JBpg7Gshukn-11" value="(1-a)C" style="text;html=1;align=center;verticalAlign=middle;resizable=0;points=[];autosize=1;strokeColor=none;fillColor=none;" parent="1" vertex="1">
          <mxGeometry x="280" y="238" width="60" height="30" as="geometry" />
        </mxCell>
        <mxCell id="VcxKodku8BXHEVl9nZtI-7" style="edgeStyle=orthogonalEdgeStyle;rounded=0;orthogonalLoop=1;jettySize=auto;html=1;exitX=0.5;exitY=1;exitDx=0;exitDy=0;entryX=0.5;entryY=0;entryDx=0;entryDy=0;" edge="1" parent="1" source="Ur8V6VJK2JBpg7Gshukn-12" target="VcxKodku8BXHEVl9nZtI-5">
          <mxGeometry relative="1" as="geometry" />
        </mxCell>
        <mxCell id="Ur8V6VJK2JBpg7Gshukn-12" value="concat" style="rounded=0;whiteSpace=wrap;html=1;fillColor=#f8cecc;strokeColor=#b85450;" parent="1" vertex="1">
          <mxGeometry x="306.88" y="380" width="46.25" height="20" as="geometry" />
        </mxCell>
        <mxCell id="Ur8V6VJK2JBpg7Gshukn-20" style="edgeStyle=orthogonalEdgeStyle;rounded=0;orthogonalLoop=1;jettySize=auto;html=1;exitX=0.5;exitY=1;exitDx=0;exitDy=0;entryX=0;entryY=0.5;entryDx=0;entryDy=0;" parent="1" source="Ur8V6VJK2JBpg7Gshukn-16" target="Ur8V6VJK2JBpg7Gshukn-12" edge="1">
          <mxGeometry relative="1" as="geometry">
            <Array as="points">
              <mxPoint x="290" y="390" />
            </Array>
          </mxGeometry>
        </mxCell>
        <mxCell id="Ur8V6VJK2JBpg7Gshukn-16" value="PWConv" style="rounded=0;whiteSpace=wrap;html=1;fillColor=#dae8fc;strokeColor=#6c8ebf;" parent="1" vertex="1">
          <mxGeometry x="260" y="350" width="60" height="20" as="geometry" />
        </mxCell>
        <mxCell id="Ur8V6VJK2JBpg7Gshukn-26" style="edgeStyle=orthogonalEdgeStyle;rounded=0;orthogonalLoop=1;jettySize=auto;html=1;exitX=0.5;exitY=1;exitDx=0;exitDy=0;entryX=0;entryY=0.5;entryDx=0;entryDy=0;" parent="1" source="Ur8V6VJK2JBpg7Gshukn-17" target="Ur8V6VJK2JBpg7Gshukn-30" edge="1">
          <mxGeometry relative="1" as="geometry">
            <mxPoint x="403.75" y="390" as="targetPoint" />
            <Array as="points">
              <mxPoint x="388" y="390" />
            </Array>
          </mxGeometry>
        </mxCell>
        <mxCell id="Ur8V6VJK2JBpg7Gshukn-17" value="PWConv" style="rounded=0;whiteSpace=wrap;html=1;fillColor=#dae8fc;strokeColor=#6c8ebf;" parent="1" vertex="1">
          <mxGeometry x="355" y="350" width="65" height="20" as="geometry" />
        </mxCell>
        <mxCell id="U6GN84W_XhxQD2ambfGV-11" style="edgeStyle=orthogonalEdgeStyle;rounded=0;orthogonalLoop=1;jettySize=auto;html=1;exitX=0.5;exitY=1;exitDx=0;exitDy=0;entryX=1;entryY=0.5;entryDx=0;entryDy=0;" parent="1" source="Ur8V6VJK2JBpg7Gshukn-18" target="Ur8V6VJK2JBpg7Gshukn-30" edge="1">
          <mxGeometry relative="1" as="geometry">
            <Array as="points">
              <mxPoint x="473" y="390" />
            </Array>
          </mxGeometry>
        </mxCell>
        <mxCell id="Ur8V6VJK2JBpg7Gshukn-18" value="GWConv" style="rounded=0;whiteSpace=wrap;html=1;fillColor=#dae8fc;strokeColor=#6c8ebf;" parent="1" vertex="1">
          <mxGeometry x="440" y="350" width="65" height="20" as="geometry" />
        </mxCell>
        <mxCell id="VcxKodku8BXHEVl9nZtI-4" value="" style="edgeStyle=orthogonalEdgeStyle;rounded=0;orthogonalLoop=1;jettySize=auto;html=1;" edge="1" parent="1" source="Ur8V6VJK2JBpg7Gshukn-30">
          <mxGeometry relative="1" as="geometry">
            <mxPoint x="430" y="420" as="targetPoint" />
          </mxGeometry>
        </mxCell>
        <mxCell id="Ur8V6VJK2JBpg7Gshukn-30" value="+" style="ellipse;whiteSpace=wrap;html=1;aspect=fixed;" parent="1" vertex="1">
          <mxGeometry x="420" y="380" width="20" height="20" as="geometry" />
        </mxCell>
        <mxCell id="VcxKodku8BXHEVl9nZtI-10" style="edgeStyle=orthogonalEdgeStyle;rounded=0;orthogonalLoop=1;jettySize=auto;html=1;exitX=0.5;exitY=1;exitDx=0;exitDy=0;entryX=0;entryY=0.5;entryDx=0;entryDy=0;" edge="1" parent="1" source="VcxKodku8BXHEVl9nZtI-5" target="VcxKodku8BXHEVl9nZtI-12">
          <mxGeometry relative="1" as="geometry">
            <mxPoint x="330" y="460" as="targetPoint" />
            <Array as="points">
              <mxPoint x="330" y="470" />
            </Array>
          </mxGeometry>
        </mxCell>
        <mxCell id="VcxKodku8BXHEVl9nZtI-30" value="Pooling" style="edgeLabel;html=1;align=center;verticalAlign=middle;resizable=0;points=[];" vertex="1" connectable="0" parent="VcxKodku8BXHEVl9nZtI-10">
          <mxGeometry x="-0.6" y="2" relative="1" as="geometry">
            <mxPoint as="offset" />
          </mxGeometry>
        </mxCell>
        <mxCell id="VcxKodku8BXHEVl9nZtI-36" style="edgeStyle=orthogonalEdgeStyle;rounded=0;orthogonalLoop=1;jettySize=auto;html=1;exitX=0;exitY=0.5;exitDx=0;exitDy=0;entryX=0;entryY=0.5;entryDx=0;entryDy=0;" edge="1" parent="1" source="VcxKodku8BXHEVl9nZtI-5" target="VcxKodku8BXHEVl9nZtI-18">
          <mxGeometry relative="1" as="geometry" />
        </mxCell>
        <mxCell id="VcxKodku8BXHEVl9nZtI-5" value="FeatureY2" style="rounded=0;whiteSpace=wrap;html=1;fillColor=#e1d5e7;strokeColor=#9673a6;" vertex="1" parent="1">
          <mxGeometry x="300.63" y="420" width="58.75" height="20" as="geometry" />
        </mxCell>
        <mxCell id="VcxKodku8BXHEVl9nZtI-11" style="edgeStyle=orthogonalEdgeStyle;rounded=0;orthogonalLoop=1;jettySize=auto;html=1;exitX=0.5;exitY=1;exitDx=0;exitDy=0;entryX=1;entryY=0.5;entryDx=0;entryDy=0;" edge="1" parent="1" source="VcxKodku8BXHEVl9nZtI-6" target="VcxKodku8BXHEVl9nZtI-12">
          <mxGeometry relative="1" as="geometry">
            <mxPoint x="430" y="460" as="targetPoint" />
            <Array as="points">
              <mxPoint x="431" y="470" />
            </Array>
          </mxGeometry>
        </mxCell>
        <mxCell id="VcxKodku8BXHEVl9nZtI-29" value="Pooling" style="edgeLabel;html=1;align=center;verticalAlign=middle;resizable=0;points=[];" vertex="1" connectable="0" parent="VcxKodku8BXHEVl9nZtI-11">
          <mxGeometry x="-0.571" relative="1" as="geometry">
            <mxPoint as="offset" />
          </mxGeometry>
        </mxCell>
        <mxCell id="VcxKodku8BXHEVl9nZtI-37" style="edgeStyle=orthogonalEdgeStyle;rounded=0;orthogonalLoop=1;jettySize=auto;html=1;exitX=1;exitY=0.5;exitDx=0;exitDy=0;entryX=1;entryY=0.5;entryDx=0;entryDy=0;" edge="1" parent="1" source="VcxKodku8BXHEVl9nZtI-6" target="VcxKodku8BXHEVl9nZtI-19">
          <mxGeometry relative="1" as="geometry" />
        </mxCell>
        <mxCell id="VcxKodku8BXHEVl9nZtI-6" value="FeatureY2" style="rounded=0;whiteSpace=wrap;html=1;fillColor=#e1d5e7;strokeColor=#9673a6;" vertex="1" parent="1">
          <mxGeometry x="401.25" y="420" width="58.75" height="20" as="geometry" />
        </mxCell>
        <mxCell id="VcxKodku8BXHEVl9nZtI-17" style="edgeStyle=orthogonalEdgeStyle;rounded=0;orthogonalLoop=1;jettySize=auto;html=1;exitX=0.5;exitY=1;exitDx=0;exitDy=0;entryX=0.5;entryY=0;entryDx=0;entryDy=0;" edge="1" parent="1" source="VcxKodku8BXHEVl9nZtI-12" target="VcxKodku8BXHEVl9nZtI-16">
          <mxGeometry relative="1" as="geometry" />
        </mxCell>
        <mxCell id="VcxKodku8BXHEVl9nZtI-12" value="S" style="ellipse;whiteSpace=wrap;html=1;aspect=fixed;" vertex="1" parent="1">
          <mxGeometry x="370.01" y="460" width="20" height="20" as="geometry" />
        </mxCell>
        <mxCell id="VcxKodku8BXHEVl9nZtI-38" value="" style="edgeStyle=orthogonalEdgeStyle;rounded=0;orthogonalLoop=1;jettySize=auto;html=1;" edge="1" parent="1" source="VcxKodku8BXHEVl9nZtI-16" target="VcxKodku8BXHEVl9nZtI-19">
          <mxGeometry relative="1" as="geometry" />
        </mxCell>
        <mxCell id="VcxKodku8BXHEVl9nZtI-39" value="" style="edgeStyle=orthogonalEdgeStyle;rounded=0;orthogonalLoop=1;jettySize=auto;html=1;" edge="1" parent="1" source="VcxKodku8BXHEVl9nZtI-16" target="VcxKodku8BXHEVl9nZtI-18">
          <mxGeometry relative="1" as="geometry" />
        </mxCell>
        <mxCell id="VcxKodku8BXHEVl9nZtI-16" value="SoftMax" style="rounded=0;whiteSpace=wrap;html=1;" vertex="1" parent="1">
          <mxGeometry x="356.89" y="500" width="46.25" height="20" as="geometry" />
        </mxCell>
        <mxCell id="VcxKodku8BXHEVl9nZtI-41" style="edgeStyle=orthogonalEdgeStyle;rounded=0;orthogonalLoop=1;jettySize=auto;html=1;exitX=0;exitY=1;exitDx=0;exitDy=0;entryX=0;entryY=0.5;entryDx=0;entryDy=0;" edge="1" parent="1" source="VcxKodku8BXHEVl9nZtI-18" target="VcxKodku8BXHEVl9nZtI-40">
          <mxGeometry relative="1" as="geometry">
            <Array as="points">
              <mxPoint x="310" y="550" />
            </Array>
          </mxGeometry>
        </mxCell>
        <mxCell id="VcxKodku8BXHEVl9nZtI-18" value="x" style="ellipse;whiteSpace=wrap;html=1;aspect=fixed;" vertex="1" parent="1">
          <mxGeometry x="306.88" y="500" width="20" height="20" as="geometry" />
        </mxCell>
        <mxCell id="VcxKodku8BXHEVl9nZtI-42" style="edgeStyle=orthogonalEdgeStyle;rounded=0;orthogonalLoop=1;jettySize=auto;html=1;exitX=0.5;exitY=1;exitDx=0;exitDy=0;entryX=1;entryY=0.5;entryDx=0;entryDy=0;" edge="1" parent="1" source="VcxKodku8BXHEVl9nZtI-19" target="VcxKodku8BXHEVl9nZtI-40">
          <mxGeometry relative="1" as="geometry" />
        </mxCell>
        <mxCell id="VcxKodku8BXHEVl9nZtI-19" value="x" style="ellipse;whiteSpace=wrap;html=1;aspect=fixed;" vertex="1" parent="1">
          <mxGeometry x="430" y="500" width="20" height="20" as="geometry" />
        </mxCell>
        <mxCell id="VcxKodku8BXHEVl9nZtI-43" style="edgeStyle=orthogonalEdgeStyle;rounded=0;orthogonalLoop=1;jettySize=auto;html=1;exitX=0.5;exitY=1;exitDx=0;exitDy=0;" edge="1" parent="1" source="VcxKodku8BXHEVl9nZtI-40">
          <mxGeometry relative="1" as="geometry">
            <mxPoint x="380" y="600" as="targetPoint" />
          </mxGeometry>
        </mxCell>
        <mxCell id="VcxKodku8BXHEVl9nZtI-44" value="Output" style="edgeLabel;html=1;align=center;verticalAlign=middle;resizable=0;points=[];" vertex="1" connectable="0" parent="VcxKodku8BXHEVl9nZtI-43">
          <mxGeometry x="-0.2594" relative="1" as="geometry">
            <mxPoint as="offset" />
          </mxGeometry>
        </mxCell>
        <mxCell id="VcxKodku8BXHEVl9nZtI-40" value="+" style="ellipse;whiteSpace=wrap;html=1;aspect=fixed;" vertex="1" parent="1">
          <mxGeometry x="370.01" y="540" width="20" height="20" as="geometry" />
        </mxCell>
      </root>
    </mxGraphModel>
  </diagram>
</mxfile>
